<svg xmlns="http://www.w3.org/2000/svg" xmlns:xlink="http://www.w3.org/1999/xlink" width="1080" zoomAndPan="magnify" viewBox="0 0 810 809.999993" height="1080" preserveAspectRatio="xMidYMid meet" version="1.0"><defs><clipPath id="b7eb5c6964"><path d="M 212 710 L 329 710 L 329 738.75 L 212 738.75 Z M 212 710 " clip-rule="nonzero"/></clipPath><clipPath id="5b641b5df0"><path d="M 595 688 L 647 688 L 647 738.75 L 595 738.75 Z M 595 688 " clip-rule="nonzero"/></clipPath><clipPath id="0ab93300f4"><path d="M 447 688 L 498 688 L 498 738.75 L 447 738.75 Z M 447 688 " clip-rule="nonzero"/></clipPath><clipPath id="b88f4b0d1a"><path d="M 317 369 L 696.75 369 L 696.75 676 L 317 676 Z M 317 369 " clip-rule="nonzero"/></clipPath><clipPath id="c2edccda21"><path d="M 212 695 L 329 695 L 329 738.75 L 212 738.75 Z M 212 695 " clip-rule="nonzero"/></clipPath></defs><rect x="-81" width="972" fill="#ffffff" y="-80.999999" height="971.999992" fill-opacity="1"/><rect x="-81" width="972" fill="#ffffff" y="-80.999999" height="971.999992" fill-opacity="1"/><path fill="#19055b" d="M 281.304688 695.15625 C 281.304688 695.15625 294.152344 710.433594 312.210938 710.773438 C 316.691406 710.859375 330.449219 710.238281 327.007812 721.183594 C 324.519531 729.109375 319.96875 736.867188 298.722656 737.378906 C 282.332031 737.773438 249.082031 736.140625 233.164062 735.644531 C 227.292969 735.460938 204.316406 733.140625 217.617188 717.523438 C 217.617188 717.523438 217.617188 704.410156 222.671875 695.15625 Z M 281.304688 695.15625 " fill-opacity="1" fill-rule="nonzero"/><path fill="#7bc9c0" d="M 300.070312 716.605469 C 293.425781 716.605469 286.789062 715.359375 286.679688 715.335938 C 274.210938 712.953125 266.21875 696.421875 265.886719 695.71875 C 265.574219 695.066406 265.851562 694.289062 266.503906 693.976562 C 267.160156 693.667969 267.9375 693.945312 268.25 694.59375 C 268.324219 694.753906 276.007812 710.632812 287.167969 712.765625 C 292.75 713.835938 305.621094 715.089844 309.800781 712.160156 C 310.457031 711.703125 310.820312 711.179688 310.921875 710.566406 C 311.035156 709.851562 311.707031 709.363281 312.417969 709.484375 C 313.132812 709.597656 313.617188 710.269531 313.503906 710.984375 C 313.289062 712.3125 312.546875 713.429688 311.300781 714.300781 C 308.78125 716.070312 304.421875 716.605469 300.070312 716.605469 Z M 300.070312 716.605469 " fill-opacity="1" fill-rule="nonzero"/><path fill="#7bc9c0" d="M 322.75 711.96875 C 324.492188 718.195312 315.570312 725.328125 311.460938 727.835938 C 302.394531 733.378906 279.238281 729.484375 268.660156 727.835938 C 250.980469 725.085938 244.457031 725.046875 236.347656 724.945312 C 217.238281 724.707031 217.617188 717.523438 217.617188 717.523438 C 204.316406 733.140625 227.292969 735.460938 233.164062 735.644531 C 249.082031 736.140625 282.332031 737.773438 298.722656 737.378906 C 319.96875 736.867188 324.519531 729.109375 327.007812 721.183594 C 328.703125 715.796875 326.230469 713.214844 322.75 711.96875 Z M 322.75 711.96875 " fill-opacity="1" fill-rule="nonzero"/><g clip-path="url(#b7eb5c6964)"><path fill="#19055b" d="M 292.921875 738.75 C 280.398438 738.75 262.636719 738.0625 247.945312 737.496094 C 242.265625 737.277344 237.140625 737.078125 233.121094 736.953125 C 230.292969 736.863281 216.011719 736.0625 212.839844 728.90625 C 211.335938 725.503906 212.605469 721.386719 216.621094 716.675781 C 216.984375 716.246094 217.578125 716.097656 218.101562 716.308594 C 218.621094 716.515625 218.953125 717.03125 218.921875 717.589844 C 218.921875 717.609375 219.195312 723.425781 236.363281 723.636719 L 236.738281 723.640625 C 244.585938 723.738281 251.363281 723.820312 268.859375 726.542969 L 270.089844 726.738281 C 280.597656 728.382812 302.457031 731.804688 310.78125 726.71875 C 315.648438 723.746094 322.859375 717.207031 321.488281 712.320312 C 321.359375 711.851562 321.5 711.34375 321.855469 711.011719 C 322.214844 710.675781 322.730469 710.574219 323.1875 710.738281 C 328.101562 712.496094 329.902344 716.347656 328.257812 721.578125 C 325.742188 729.574219 321.183594 738.148438 298.757812 738.6875 C 296.988281 738.730469 295.027344 738.75 292.921875 738.75 Z M 217.183594 720.191406 C 214.996094 723.261719 214.339844 725.828125 215.234375 727.847656 C 217.335938 732.59375 227.519531 734.160156 233.203125 734.335938 C 237.226562 734.464844 242.359375 734.660156 248.042969 734.882812 C 265.171875 735.542969 286.484375 736.367188 298.691406 736.074219 C 319.398438 735.574219 323.417969 728.25 325.761719 720.792969 C 326.742188 717.679688 326.285156 715.566406 324.269531 714.171875 C 323.78125 721.75 312.667969 728.632812 312.144531 728.953125 C 303 734.539062 281.328125 731.144531 269.6875 729.320312 L 268.460938 729.128906 C 251.144531 726.433594 244.773438 726.355469 236.707031 726.257812 L 236.332031 726.253906 C 227.175781 726.140625 221.019531 724.464844 218.027344 721.273438 C 217.679688 720.90625 217.402344 720.539062 217.183594 720.191406 Z M 217.183594 720.191406 " fill-opacity="1" fill-rule="nonzero"/></g><path fill="#19055b" d="M 153.238281 643.175781 C 153.238281 643.175781 147.917969 671.726562 157.847656 686.714844 C 160.3125 690.433594 168.511719 701.324219 158.707031 705.140625 C 151.609375 707.90625 143.46875 708.882812 131.132812 691.800781 C 121.609375 678.621094 104.046875 650.410156 95.433594 637.074219 C 92.257812 632.160156 80.976562 611.941406 99.691406 613.363281 C 99.691406 613.363281 109.113281 605.417969 118.613281 603.949219 Z M 153.238281 643.175781 " fill-opacity="1" fill-rule="nonzero"/><path fill="#ec8f3c" d="M 222.464844 516.882812 C 222.464844 516.882812 185.613281 540.402344 166.980469 562.042969 C 156.871094 573.789062 143.925781 588.613281 118.613281 603.949219 C 118.613281 603.949219 137.144531 638.035156 163.816406 650.003906 C 163.816406 650.003906 199.878906 610.597656 213.085938 598.230469 C 222.117188 589.773438 249.234375 577.890625 251.519531 566.09375 C 254.191406 552.292969 222.464844 516.882812 222.464844 516.882812 Z M 222.464844 516.882812 " fill-opacity="1" fill-rule="nonzero"/><path fill="#7bc9c0" d="M 156.0625 688.410156 C 155.144531 688.410156 154.199219 688.1875 153.230469 687.746094 C 147.410156 685.085938 141.890625 674.617188 139.992188 668.378906 C 136.359375 656.445312 142.660156 636.972656 142.929688 636.148438 C 143.15625 635.460938 143.894531 635.085938 144.582031 635.3125 C 145.265625 635.539062 145.640625 636.277344 145.417969 636.964844 C 145.351562 637.15625 139.105469 656.476562 142.496094 667.621094 C 144.277344 673.480469 149.511719 683.167969 154.316406 685.363281 C 155.425781 685.871094 156.410156 685.925781 157.316406 685.519531 C 157.976562 685.226562 158.75 685.527344 159.042969 686.183594 C 159.335938 686.84375 159.039062 687.617188 158.378906 687.910156 C 157.632812 688.242188 156.859375 688.410156 156.0625 688.410156 Z M 156.0625 688.410156 " fill-opacity="1" fill-rule="nonzero"/><path fill="#7bc9c0" d="M 145.167969 696.445312 C 136.414062 691.785156 127.53125 670.472656 122.597656 660.878906 C 116.738281 649.480469 109.414062 639.894531 104.914062 633.195312 C 94.316406 617.410156 99.691406 613.363281 99.691406 613.363281 C 80.976562 611.941406 92.257812 632.160156 95.433594 637.074219 C 104.046875 650.410156 121.609375 678.621094 131.132812 691.800781 C 143.46875 708.882812 151.609375 707.90625 158.707031 705.140625 C 163.53125 703.261719 163.996094 699.671875 162.929688 696.066406 C 159.4375 701.269531 150.152344 699.097656 145.167969 696.445312 Z M 145.167969 696.445312 " fill-opacity="1" fill-rule="nonzero"/><path fill="#19055b" d="M 151.5 708.058594 C 145.742188 708.058594 138.875 704.753906 130.070312 692.566406 C 122.933594 682.6875 111.492188 664.703125 102.300781 650.253906 C 99.257812 645.46875 96.507812 641.152344 94.335938 637.785156 C 92.738281 635.316406 84.980469 622.648438 88.992188 615.902344 C 90.75 612.941406 94.382812 611.648438 99.792969 612.058594 C 100.335938 612.101562 100.796875 612.472656 100.949219 612.996094 C 101.101562 613.519531 100.914062 614.082031 100.480469 614.40625 C 100.476562 614.414062 96.445312 618.234375 106 632.46875 C 107.027344 633.992188 108.195312 635.667969 109.464844 637.484375 C 113.800781 643.6875 119.199219 651.410156 123.761719 660.28125 C 124.640625 661.992188 125.644531 664.070312 126.75 666.363281 C 131.609375 676.4375 138.957031 691.660156 145.78125 695.289062 C 150.566406 697.832031 158.976562 699.609375 161.84375 695.335938 C 162.125 694.917969 162.621094 694.695312 163.128906 694.773438 C 163.628906 694.851562 164.039062 695.207031 164.183594 695.695312 C 165.695312 700.808594 163.964844 704.496094 159.183594 706.359375 C 156.820312 707.28125 154.289062 708.058594 151.5 708.058594 Z M 97.421875 614.605469 C 94.308594 614.683594 92.234375 615.566406 91.238281 617.238281 C 88.566406 621.734375 93.308594 631.375 96.53125 636.363281 C 98.707031 639.738281 101.460938 644.058594 104.507812 648.851562 C 113.679688 663.269531 125.097656 681.214844 132.191406 691.035156 C 144.171875 707.621094 151.625 706.496094 158.234375 703.921875 C 160.910156 702.878906 162.167969 701.222656 162.089844 698.78125 C 157.371094 702.148438 149.21875 700.082031 144.554688 697.597656 C 136.972656 693.566406 129.703125 678.5 124.394531 667.5 C 123.300781 665.230469 122.304688 663.171875 121.433594 661.476562 C 116.953125 652.765625 111.613281 645.121094 107.320312 638.980469 C 106.042969 637.152344 104.863281 635.464844 103.828125 633.925781 C 96.601562 623.160156 96.476562 617.414062 97.421875 614.605469 Z M 97.421875 614.605469 " fill-opacity="1" fill-rule="nonzero"/><path fill="#ec8f3c" d="M 222.464844 516.882812 C 222.464844 516.882812 185.613281 540.402344 166.980469 562.042969 C 156.871094 573.789062 143.925781 588.613281 118.613281 603.949219 C 118.613281 603.949219 137.144531 638.035156 163.816406 650.003906 C 163.816406 650.003906 199.878906 610.597656 213.085938 598.230469 C 222.117188 589.773438 248.785156 577.808594 251.519531 566.09375 C 270.046875 486.683594 222.464844 516.882812 222.464844 516.882812 Z M 222.464844 516.882812 " fill-opacity="1" fill-rule="nonzero"/><path fill="#19055b" d="M 163.816406 651.3125 C 163.636719 651.3125 163.453125 651.277344 163.28125 651.199219 C 136.515625 639.1875 118.230469 605.980469 117.464844 604.574219 C 117.128906 603.960938 117.339844 603.191406 117.9375 602.832031 C 143.441406 587.378906 156.472656 572.242188 165.988281 561.191406 C 184.53125 539.652344 221.390625 516.015625 221.761719 515.78125 C 221.761719 515.78125 221.765625 515.777344 221.765625 515.777344 C 222.449219 515.34375 238.644531 505.222656 249.070312 512.625 C 258.328125 519.199219 259.582031 537.289062 252.792969 566.390625 C 250.871094 574.632812 238.46875 582.589844 227.523438 589.609375 C 222.097656 593.09375 216.972656 596.382812 213.980469 599.183594 C 200.960938 611.375 165.140625 650.496094 164.78125 650.886719 C 164.527344 651.164062 164.175781 651.3125 163.816406 651.3125 Z M 120.378906 604.40625 C 123.75 610.199219 140.628906 637.667969 163.496094 648.417969 C 168.417969 643.054688 200.074219 608.625 212.195312 597.273438 C 215.359375 594.308594 220.582031 590.957031 226.113281 587.410156 C 236.636719 580.65625 248.566406 573.003906 250.246094 565.796875 C 258.371094 530.960938 253.269531 518.816406 247.558594 514.761719 C 238.574219 508.386719 223.40625 517.839844 223.167969 517.988281 C 222.734375 518.261719 186.246094 541.671875 167.972656 562.898438 C 158.476562 573.925781 145.523438 588.96875 120.378906 604.40625 Z M 120.378906 604.40625 " fill-opacity="1" fill-rule="nonzero"/><path fill="#19055b" d="M 214.132812 598.613281 C 213.820312 598.613281 213.507812 598.5 213.257812 598.273438 C 212.722656 597.792969 212.679688 596.964844 213.164062 596.429688 L 226.628906 581.484375 C 227.113281 580.949219 227.9375 580.90625 228.476562 581.390625 C 229.011719 581.875 229.054688 582.703125 228.574219 583.238281 L 215.105469 598.179688 C 214.847656 598.464844 214.492188 598.613281 214.132812 598.613281 Z M 214.132812 598.613281 " fill-opacity="1" fill-rule="nonzero"/><path fill="#19055b" d="M 302.589844 131.929688 C 302.589844 132.941406 302.492188 133.9375 302.292969 134.929688 C 302.097656 135.917969 301.804688 136.878906 301.417969 137.8125 C 301.035156 138.742188 300.558594 139.628906 300 140.46875 C 299.4375 141.308594 298.800781 142.082031 298.089844 142.796875 C 297.375 143.511719 296.601562 144.148438 295.761719 144.707031 C 294.921875 145.269531 294.039062 145.742188 293.105469 146.128906 C 292.171875 146.515625 291.210938 146.804688 290.222656 147.003906 C 289.234375 147.199219 288.234375 147.296875 287.226562 147.296875 C 286.21875 147.296875 285.21875 147.199219 284.230469 147.003906 C 283.238281 146.804688 282.277344 146.515625 281.347656 146.128906 C 280.414062 145.742188 279.53125 145.269531 278.691406 144.707031 C 277.851562 144.148438 277.074219 143.511719 276.363281 142.796875 C 275.648438 142.082031 275.011719 141.308594 274.453125 140.46875 C 273.890625 139.628906 273.417969 138.742188 273.03125 137.8125 C 272.648438 136.878906 272.355469 135.917969 272.160156 134.929688 C 271.960938 133.9375 271.863281 132.941406 271.863281 131.929688 C 271.863281 130.921875 271.960938 129.921875 272.160156 128.933594 C 272.355469 127.945312 272.648438 126.984375 273.03125 126.050781 C 273.417969 125.117188 273.890625 124.234375 274.453125 123.394531 C 275.011719 122.554688 275.648438 121.777344 276.363281 121.066406 C 277.074219 120.351562 277.851562 119.714844 278.691406 119.152344 C 279.53125 118.59375 280.414062 118.121094 281.347656 117.734375 C 282.277344 117.347656 283.238281 117.054688 284.230469 116.859375 C 285.21875 116.664062 286.21875 116.5625 287.226562 116.5625 C 288.234375 116.5625 289.234375 116.664062 290.222656 116.859375 C 291.210938 117.054688 292.171875 117.347656 293.105469 117.734375 C 294.039062 118.121094 294.921875 118.59375 295.761719 119.152344 C 296.601562 119.714844 297.375 120.351562 298.089844 121.066406 C 298.800781 121.777344 299.4375 122.554688 300 123.394531 C 300.558594 124.234375 301.035156 125.117188 301.417969 126.050781 C 301.804688 126.984375 302.097656 127.945312 302.292969 128.933594 C 302.492188 129.921875 302.589844 130.921875 302.589844 131.929688 Z M 302.589844 131.929688 " fill-opacity="1" fill-rule="nonzero"/><path fill="#ec8f3c" d="M 235.546875 161.472656 L 219.171875 189.40625 L 250.734375 220.375 L 266.460938 188.957031 Z M 235.546875 161.472656 " fill-opacity="1" fill-rule="nonzero"/><path fill="#ec8f3c" d="M 294.074219 122.707031 C 296.921875 132.003906 296.460938 155.769531 296.460938 155.769531 C 296.460938 155.769531 304.257812 175.59375 293.976562 174.660156 C 293.976562 174.660156 294.324219 207.089844 263.644531 194.582031 C 257.0625 191.898438 241.570312 184.132812 232.476562 178.863281 C 222.253906 172.941406 218.140625 140.8125 226.054688 132.039062 C 246.683594 109.164062 287.15625 100.109375 294.074219 122.707031 Z M 294.074219 122.707031 " fill-opacity="1" fill-rule="nonzero"/><path fill="#19055b" d="M 250.734375 221.683594 C 250.394531 221.683594 250.066406 221.550781 249.820312 221.308594 L 218.253906 190.339844 C 217.828125 189.917969 217.738281 189.261719 218.042969 188.742188 L 226.550781 174.226562 C 219.902344 162.746094 217.976562 139.039062 225.082031 131.164062 C 239.542969 115.132812 263.753906 105.4375 280.214844 109.085938 C 287.976562 110.8125 293.203125 115.386719 295.324219 122.324219 C 298.070312 131.292969 297.816406 152.785156 297.773438 155.535156 C 298.617188 157.742188 302.726562 169.175781 299.167969 173.921875 C 298.5 174.816406 297.300781 175.808594 295.25 175.976562 C 295.054688 179.78125 293.808594 190.667969 286.074219 195.929688 C 280.675781 199.601562 273.347656 199.703125 264.277344 196.238281 L 251.90625 220.960938 C 251.714844 221.335938 251.363281 221.597656 250.949219 221.667969 C 250.878906 221.679688 250.804688 221.683594 250.734375 221.683594 Z M 220.816406 189.1875 L 250.367188 218.183594 L 262.472656 193.996094 C 262.78125 193.386719 263.507812 193.117188 264.136719 193.371094 C 272.867188 196.929688 279.746094 197.0625 284.59375 193.769531 C 292.699219 188.265625 292.671875 174.808594 292.667969 174.671875 C 292.664062 174.304688 292.820312 173.949219 293.089844 173.699219 C 293.363281 173.449219 293.726562 173.324219 294.097656 173.355469 C 295.960938 173.527344 296.691406 172.863281 297.074219 172.351562 C 299.222656 169.488281 297.09375 160.953125 295.246094 156.246094 C 295.183594 156.085938 295.152344 155.914062 295.152344 155.742188 C 295.160156 155.507812 295.578125 132.078125 292.824219 123.089844 C 290.992188 117.109375 286.4375 113.148438 279.644531 111.640625 C 264.292969 108.234375 240.683594 117.773438 227.023438 132.914062 C 221.136719 139.441406 222.371094 162.59375 229.183594 173.527344 C 229.441406 173.941406 229.449219 174.460938 229.199219 174.882812 Z M 220.816406 189.1875 " fill-opacity="1" fill-rule="nonzero"/><path fill="#ec8f3c" d="M 164.027344 351.328125 C 150.964844 367.855469 150.4375 399.398438 166.910156 430.742188 C 185.167969 465.476562 236.976562 571.054688 236.976562 571.054688 C 236.976562 571.054688 233.261719 581.550781 229.328125 613.09375 C 226.71875 634.011719 217.394531 696.585938 217.394531 696.585938 C 217.394531 696.585938 277.0625 700.066406 291.746094 694.554688 C 291.746094 694.554688 293.535156 611.933594 298.171875 582.363281 C 299.726562 572.46875 303.273438 563.160156 298.171875 542.355469 C 294.480469 527.285156 283.472656 492.109375 275.34375 468.132812 C 273.351562 462.257812 277.359375 404.636719 277.601562 398.476562 C 277.757812 394.582031 191.898438 316.070312 164.027344 351.328125 Z M 164.027344 351.328125 " fill-opacity="1" fill-rule="nonzero"/><path fill="#19055b" d="M 254.855469 698.988281 C 236.527344 698.988281 218.65625 697.96875 217.316406 697.890625 C 216.953125 697.871094 216.613281 697.695312 216.378906 697.410156 C 216.148438 697.125 216.046875 696.757812 216.101562 696.390625 C 216.195312 695.765625 225.453125 633.59375 228.03125 612.929688 C 231.503906 585.085938 234.777344 573.65625 235.570312 571.152344 C 231.75 563.375 183.167969 464.480469 165.75 431.347656 C 149.832031 401.0625 148.726562 368.578125 163.003906 350.515625 L 164.027344 351.328125 L 163.003906 350.515625 C 171.433594 339.847656 185.503906 338.066406 204.820312 345.207031 C 237.601562 357.332031 279.082031 394.117188 278.910156 398.527344 C 278.863281 399.695312 278.683594 402.710938 278.433594 406.875 C 277.507812 422.277344 275.046875 463.191406 276.582031 467.714844 C 284.644531 491.492188 295.675781 526.671875 299.445312 542.042969 C 303.78125 559.742188 301.945312 569.320312 300.328125 577.773438 C 300.019531 579.390625 299.714844 580.96875 299.464844 582.566406 C 294.894531 611.710938 293.074219 693.757812 293.054688 694.585938 C 293.042969 695.121094 292.707031 695.59375 292.207031 695.78125 C 285.515625 698.289062 270.027344 698.988281 254.855469 698.988281 Z M 218.898438 695.355469 C 227.859375 695.828125 276.277344 698.117188 290.460938 693.617188 C 290.675781 684.488281 292.546875 609.804688 296.878906 582.160156 C 297.136719 580.535156 297.445312 578.925781 297.757812 577.28125 C 299.328125 569.089844 301.105469 559.808594 296.902344 542.667969 C 293.152344 527.363281 282.148438 492.28125 274.105469 468.554688 C 272.613281 464.152344 274.046875 436.234375 275.820312 406.71875 C 276.058594 402.800781 276.230469 399.90625 276.285156 398.625 C 273.746094 393.421875 224.707031 348.960938 190.128906 344 C 179.019531 342.402344 170.585938 345.140625 165.054688 352.136719 C 151.410156 369.402344 152.621094 400.742188 168.066406 430.132812 C 186.125 464.488281 237.632812 569.421875 238.152344 570.480469 C 238.304688 570.792969 238.328125 571.160156 238.210938 571.492188 C 238.175781 571.597656 234.484375 582.304688 230.625 613.253906 C 228.265625 632.195312 220.304688 685.917969 218.898438 695.355469 Z M 218.898438 695.355469 " fill-opacity="1" fill-rule="nonzero"/><path fill="#19055b" d="M 164.027344 351.328125 C 155.8125 361.722656 152.570312 378.066406 155.386719 396.558594 C 161.363281 400.574219 194.863281 419.53125 277.226562 405.128906 C 277.421875 401.847656 277.5625 399.476562 277.601562 398.476562 C 277.757812 394.582031 191.898438 316.070312 164.027344 351.328125 Z M 164.027344 351.328125 " fill-opacity="1" fill-rule="nonzero"/><path fill="#19055b" d="M 221.289062 411.742188 C 178.480469 411.742188 159.035156 400.585938 154.65625 397.644531 C 154.351562 397.4375 154.148438 397.117188 154.09375 396.753906 C 151.257812 378.121094 154.503906 361.265625 163.003906 350.515625 L 164.027344 351.328125 L 163.003906 350.515625 C 171.433594 339.847656 185.503906 338.066406 204.820312 345.207031 C 237.601562 357.332031 279.082031 394.117188 278.910156 398.527344 C 278.871094 399.535156 278.730469 401.914062 278.53125 405.207031 C 278.496094 405.8125 278.050781 406.3125 277.453125 406.417969 C 255.402344 410.273438 236.808594 411.742188 221.289062 411.742188 Z M 156.589844 395.785156 C 163.5625 400.261719 196.832031 417.660156 275.984375 404.019531 C 276.136719 401.472656 276.246094 399.589844 276.285156 398.625 C 273.746094 393.421875 224.707031 348.960938 190.128906 344 C 179.019531 342.402344 170.585938 345.140625 165.054688 352.136719 C 157.089844 362.214844 154.015625 378.097656 156.589844 395.785156 Z M 156.589844 395.785156 " fill-opacity="1" fill-rule="nonzero"/><path fill="#f6bd3b" d="M 219.035156 189.40625 C 219.035156 189.40625 194.292969 210.222656 180.46875 259.9375 C 176.726562 273.40625 167.425781 308.046875 157.800781 330.40625 C 148.476562 352.058594 138.484375 380.386719 154.375 395.832031 C 168.859375 409.910156 270.339844 410.152344 282.050781 395.375 C 293.46875 380.964844 279.414062 350.210938 278.265625 335.183594 C 273.636719 274.636719 278.492188 283.632812 271.613281 227.464844 C 271.613281 227.464844 240.59375 196.355469 219.035156 189.40625 Z M 219.035156 189.40625 " fill-opacity="1" fill-rule="nonzero"/><path fill="#7bc9c0" d="M 240.738281 283.246094 C 240.738281 283.246094 260.898438 282.984375 275.816406 281.476562 L 276.089844 295.914062 C 276.089844 295.914062 257.621094 298.902344 239.246094 297.914062 Z M 240.738281 283.246094 " fill-opacity="1" fill-rule="nonzero"/><path fill="#19055b" d="M 246.9375 299.421875 C 244.378906 299.421875 241.773438 299.363281 239.175781 299.222656 C 238.816406 299.203125 238.484375 299.039062 238.25 298.765625 C 238.019531 298.492188 237.90625 298.140625 237.945312 297.78125 L 239.4375 283.113281 C 239.503906 282.453125 240.054688 281.945312 240.722656 281.9375 C 240.921875 281.933594 260.996094 281.660156 275.683594 280.171875 C 276.042969 280.132812 276.410156 280.253906 276.683594 280.496094 C 276.953125 280.738281 277.113281 281.085938 277.121094 281.449219 L 277.398438 295.890625 C 277.410156 296.539062 276.941406 297.101562 276.300781 297.207031 C 276.140625 297.230469 262.398438 299.421875 246.9375 299.421875 Z M 240.683594 296.675781 C 255.691406 297.316406 270.625 295.386719 274.761719 294.789062 L 274.535156 282.914062 C 261.988281 284.09375 246.28125 284.453125 241.921875 284.535156 Z M 240.683594 296.675781 " fill-opacity="1" fill-rule="nonzero"/><path fill="#7bc9c0" d="M 238.5625 303.21875 C 238.5625 303.21875 257.699219 304.695312 276.28125 301.824219 L 276.683594 310.859375 C 276.683594 310.859375 262.296875 314.144531 237.191406 312.570312 Z M 238.5625 303.21875 " fill-opacity="1" fill-rule="nonzero"/><path fill="#19055b" d="M 250.640625 314.308594 C 246.566406 314.308594 242.046875 314.183594 237.109375 313.875 C 236.746094 313.851562 236.40625 313.679688 236.175781 313.394531 C 235.945312 313.109375 235.84375 312.742188 235.898438 312.378906 L 237.269531 303.027344 C 237.367188 302.347656 237.984375 301.855469 238.664062 301.914062 C 238.851562 301.929688 257.871094 303.34375 276.082031 300.53125 C 276.449219 300.472656 276.824219 300.578125 277.109375 300.8125 C 277.398438 301.046875 277.570312 301.394531 277.589844 301.765625 L 277.988281 310.800781 C 278.019531 311.433594 277.589844 311.996094 276.972656 312.136719 C 276.496094 312.246094 267.214844 314.308594 250.640625 314.308594 Z M 238.691406 311.347656 C 258.683594 312.472656 271.660156 310.472656 275.328125 309.796875 L 275.039062 303.332031 C 259.65625 305.523438 244.082031 304.855469 239.683594 304.601562 Z M 238.691406 311.347656 " fill-opacity="1" fill-rule="nonzero"/><path fill="#19055b" d="M 241.429688 272.117188 L 239.246094 328.832031 L 213.523438 325.539062 L 283.894531 354.808594 L 235.023438 343.96875 L 193.023438 334.652344 Z M 241.429688 272.117188 " fill-opacity="1" fill-rule="nonzero"/><path fill="#19055b" d="M 283.898438 356.117188 C 283.800781 356.117188 283.707031 356.109375 283.613281 356.085938 L 192.738281 335.929688 C 192.300781 335.835938 191.945312 335.519531 191.792969 335.097656 C 191.640625 334.675781 191.714844 334.207031 191.988281 333.851562 L 240.394531 271.316406 C 240.746094 270.867188 241.34375 270.695312 241.878906 270.886719 C 242.410156 271.082031 242.757812 271.597656 242.738281 272.164062 L 240.550781 328.878906 C 240.539062 329.246094 240.371094 329.589844 240.089844 329.828125 C 239.8125 330.066406 239.4375 330.175781 239.078125 330.128906 L 223.023438 328.074219 L 284.398438 353.601562 C 285.023438 353.863281 285.347656 354.558594 285.140625 355.203125 C 284.96875 355.757812 284.453125 356.117188 283.898438 356.117188 Z M 195.320312 333.824219 L 269.695312 350.320312 L 213.023438 326.746094 C 212.417969 326.496094 212.09375 325.835938 212.261719 325.203125 C 212.429688 324.570312 213.042969 324.152344 213.691406 324.242188 L 237.992188 327.351562 L 239.964844 276.144531 Z M 195.320312 333.824219 " fill-opacity="1" fill-rule="nonzero"/><path fill="#19055b" d="M 218.617188 407.746094 C 189.925781 407.746094 161.058594 404.152344 153.464844 396.773438 C 137.523438 381.277344 146.105469 354.265625 156.597656 329.886719 C 165.480469 309.257812 174.136719 277.945312 178.292969 262.894531 L 179.210938 259.585938 C 192.984375 210.054688 217.945312 188.613281 218.195312 188.402344 C 218.539062 188.113281 219.003906 188.019531 219.4375 188.160156 C 241.046875 195.125 271.261719 225.261719 272.539062 226.542969 C 272.746094 226.75 272.875 227.019531 272.910156 227.308594 C 276.777344 258.863281 276.949219 270.046875 277.164062 284.203125 C 277.339844 295.601562 277.539062 308.519531 279.566406 335.085938 C 279.898438 339.410156 281.375 345.261719 282.9375 351.457031 C 286.761719 366.636719 291.523438 385.523438 283.074219 396.1875 C 277.203125 403.597656 253.292969 406.199219 239.5625 407.089844 C 232.8125 407.527344 225.71875 407.746094 218.617188 407.746094 Z M 219.34375 190.886719 C 215.679688 194.269531 194.148438 215.625 181.730469 260.289062 L 180.816406 263.589844 C 176.640625 278.695312 167.953125 310.128906 159 330.921875 C 148.859375 354.480469 140.484375 380.507812 155.289062 394.894531 C 163.832031 403.203125 206.464844 406.613281 239.394531 404.476562 C 261.6875 403.03125 277.25 399.324219 281.027344 394.5625 C 288.671875 384.910156 284.085938 366.71875 280.398438 352.097656 C 278.808594 345.789062 277.308594 339.832031 276.960938 335.285156 C 274.925781 308.640625 274.726562 295.679688 274.550781 284.246094 C 274.335938 270.234375 274.164062 259.148438 270.371094 228.074219 C 267.085938 224.835938 239.164062 197.703125 219.34375 190.886719 Z M 219.34375 190.886719 " fill-opacity="1" fill-rule="nonzero"/><path fill="#19055b" d="M 310.378906 112.953125 C 309.03125 103.140625 300.214844 96.214844 290.457031 97.082031 C 288.28125 88.226562 279.726562 82.261719 270.492188 83.53125 C 266.664062 84.054688 263.292969 85.753906 260.664062 88.203125 C 255.960938 85.289062 250.257812 83.933594 244.347656 84.742188 C 235.210938 85.996094 227.945312 92.117188 224.78125 100.125 C 224.019531 100.148438 223.253906 100.203125 222.484375 100.308594 C 210.738281 101.921875 202.523438 112.753906 204.132812 124.503906 C 204.636719 128.167969 206.035156 131.488281 208.082031 134.277344 C 205.261719 138.09375 203.859375 142.96875 204.558594 148.042969 C 205.609375 155.710938 211.128906 161.65625 218.128906 163.632812 C 217.441406 165.59375 217.1875 167.738281 217.488281 169.9375 C 218.503906 177.34375 225.332031 182.527344 232.742188 181.511719 C 240.148438 180.496094 245.328125 173.664062 244.3125 166.253906 C 243.761719 162.222656 241.480469 158.859375 238.324219 156.785156 C 240.496094 153.886719 241.835938 150.367188 242.058594 146.609375 C 244.964844 151.609375 250.683594 154.628906 256.765625 153.796875 C 263.871094 152.820312 269.082031 146.917969 269.441406 140.007812 C 271.082031 140.367188 272.804688 140.464844 274.566406 140.222656 C 279.367188 139.5625 283.289062 136.648438 285.453125 132.703125 C 288.265625 133.789062 291.386719 134.203125 294.589844 133.765625 C 304.695312 132.378906 311.765625 123.058594 310.378906 112.953125 Z M 310.378906 112.953125 " fill-opacity="1" fill-rule="nonzero"/><path fill="#ec8f3c" d="M 248.675781 138.820312 C 249.515625 138.960938 250.335938 139.179688 251.136719 139.46875 C 251.933594 139.757812 252.699219 140.117188 253.425781 140.546875 C 254.152344 140.976562 254.828125 141.464844 255.453125 142.015625 C 256.082031 142.566406 256.644531 143.164062 257.148438 143.816406 C 257.648438 144.46875 258.078125 145.15625 258.4375 145.882812 C 258.796875 146.609375 259.074219 147.359375 259.277344 148.132812 C 259.476562 148.90625 259.597656 149.6875 259.632812 150.480469 C 259.667969 151.273438 259.621094 152.058594 259.488281 152.835938 C 259.359375 153.617188 259.148438 154.375 258.855469 155.109375 C 258.5625 155.847656 258.195312 156.546875 257.753906 157.214844 C 257.3125 157.878906 256.800781 158.496094 256.226562 159.066406 C 255.648438 159.636719 255.019531 160.148438 254.332031 160.597656 C 253.644531 161.050781 252.914062 161.433594 252.144531 161.746094 C 251.371094 162.0625 250.574219 162.304688 249.746094 162.472656 C 248.917969 162.640625 248.082031 162.730469 247.230469 162.746094 C 246.378906 162.757812 245.535156 162.695312 244.695312 162.554688 C 243.855469 162.414062 243.035156 162.195312 242.234375 161.90625 C 241.433594 161.617188 240.671875 161.257812 239.945312 160.828125 C 239.21875 160.398438 238.542969 159.910156 237.914062 159.359375 C 237.289062 158.808594 236.726562 158.210938 236.222656 157.558594 C 235.722656 156.90625 235.289062 156.21875 234.933594 155.492188 C 234.574219 154.765625 234.292969 154.015625 234.09375 153.242188 C 233.890625 152.46875 233.773438 151.6875 233.738281 150.894531 C 233.703125 150.101562 233.75 149.316406 233.878906 148.539062 C 234.011719 147.757812 234.222656 147 234.515625 146.265625 C 234.808594 145.527344 235.175781 144.828125 235.617188 144.160156 C 236.058594 143.496094 236.566406 142.878906 237.144531 142.308594 C 237.71875 141.738281 238.351562 141.230469 239.039062 140.777344 C 239.726562 140.328125 240.453125 139.941406 241.226562 139.628906 C 241.996094 139.3125 242.796875 139.070312 243.625 138.902344 C 244.449219 138.734375 245.289062 138.644531 246.140625 138.628906 C 246.988281 138.617188 247.835938 138.679688 248.675781 138.820312 Z M 248.675781 138.820312 " fill-opacity="1" fill-rule="nonzero"/><path fill="#19055b" d="M 245.992188 156.117188 C 245.921875 156.117188 245.847656 156.113281 245.777344 156.101562 C 244.152344 155.828125 242.6875 155.027344 241.65625 153.851562 C 240.570312 152.617188 240.089844 151.074219 240.332031 149.621094 C 240.578125 148.167969 241.535156 146.867188 242.964844 146.054688 C 244.328125 145.277344 245.96875 145.003906 247.589844 145.273438 C 248.304688 145.394531 248.785156 146.070312 248.664062 146.78125 C 248.546875 147.492188 247.867188 147.972656 247.160156 147.855469 C 246.140625 147.683594 245.085938 147.855469 244.257812 148.328125 C 243.503906 148.757812 243.027344 149.367188 242.914062 150.054688 C 242.796875 150.738281 243.046875 151.472656 243.621094 152.125 C 244.25 152.839844 245.191406 153.347656 246.207031 153.519531 C 246.921875 153.640625 247.402344 154.3125 247.28125 155.027344 C 247.175781 155.664062 246.621094 156.117188 245.992188 156.117188 Z M 245.992188 156.117188 " fill-opacity="1" fill-rule="nonzero"/><path fill="#19055b" d="M 287.476562 148.421875 C 287.792969 148.425781 288.101562 148.519531 288.394531 148.695312 C 288.6875 148.875 288.941406 149.125 289.164062 149.449219 C 289.382812 149.769531 289.550781 150.140625 289.664062 150.558594 C 289.78125 150.976562 289.832031 151.414062 289.824219 151.863281 C 289.816406 152.3125 289.746094 152.746094 289.617188 153.160156 C 289.484375 153.574219 289.304688 153.9375 289.070312 154.25 C 288.839844 154.566406 288.574219 154.804688 288.273438 154.972656 C 287.976562 155.140625 287.664062 155.21875 287.34375 155.214844 C 287.023438 155.207031 286.71875 155.117188 286.425781 154.9375 C 286.132812 154.761719 285.878906 154.507812 285.65625 154.1875 C 285.4375 153.863281 285.269531 153.492188 285.15625 153.074219 C 285.039062 152.65625 284.988281 152.222656 284.996094 151.769531 C 285.003906 151.320312 285.074219 150.886719 285.203125 150.472656 C 285.335938 150.0625 285.515625 149.695312 285.75 149.382812 C 285.980469 149.066406 286.246094 148.828125 286.546875 148.660156 C 286.84375 148.496094 287.15625 148.414062 287.476562 148.421875 Z M 287.476562 148.421875 " fill-opacity="1" fill-rule="nonzero"/><path fill="#19055b" d="M 283.738281 181.300781 C 277.824219 181.300781 275.171875 177.511719 275.046875 177.332031 C 274.640625 176.734375 274.796875 175.921875 275.394531 175.515625 C 275.988281 175.105469 276.796875 175.261719 277.207031 175.851562 C 277.324219 176.023438 279.828125 179.433594 285.667969 178.53125 C 286.378906 178.421875 287.050781 178.910156 287.160156 179.625 C 287.269531 180.335938 286.78125 181.003906 286.066406 181.117188 C 285.242188 181.242188 284.464844 181.300781 283.738281 181.300781 Z M 283.738281 181.300781 " fill-opacity="1" fill-rule="nonzero"/><path fill="#ec8f3c" d="M 291.980469 355.992188 C 291.980469 355.992188 330.164062 349.566406 335.066406 353.453125 C 340.3125 357.609375 354.273438 368.335938 347.769531 376.15625 C 343.820312 380.898438 327.222656 397.949219 321.992188 378.273438 C 321.992188 378.273438 316.125 388.410156 300.824219 386.5 C 295.753906 385.871094 280.90625 382.160156 280.90625 382.160156 Z M 291.980469 355.992188 " fill-opacity="1" fill-rule="nonzero"/><path fill="#ec8f3c" d="M 289.351562 383.101562 C 288.585938 383.101562 287.8125 383.054688 287.03125 382.960938 C 265.742188 380.402344 239.445312 374.84375 218.398438 368.457031 C 193.296875 360.835938 170.171875 351.289062 170.921875 333.179688 C 171.660156 315.371094 195.160156 252.84375 202.34375 234.105469 C 205.644531 225.503906 215.855469 221.003906 225.144531 224.058594 C 234.4375 227.113281 239.296875 236.558594 236 245.164062 C 224.054688 276.316406 211.125 313.621094 207.558594 328.914062 C 220.300781 335.429688 257.53125 351.851562 291.980469 355.992188 C 301.757812 357.167969 308.304688 359.648438 307.035156 368.699219 C 305.867188 377.027344 298.1875 383.101562 289.351562 383.101562 Z M 289.351562 383.101562 " fill-opacity="1" fill-rule="nonzero"/><path fill="#f6bd3b" d="M 225.402344 215.917969 C 203.339844 208.449219 191.410156 252.894531 175.636719 308.941406 L 235.210938 323.917969 L 241.527344 269.507812 C 243.945312 241.007812 242.265625 221.628906 225.402344 215.917969 Z M 225.402344 215.917969 " fill-opacity="1" fill-rule="nonzero"/><path fill="#19055b" d="M 262.207031 198.761719 C 261.867188 198.761719 261.539062 198.628906 261.292969 198.386719 L 254.652344 191.855469 C 254.195312 191.410156 254.132812 190.695312 254.5 190.171875 C 254.867188 189.648438 255.558594 189.46875 256.136719 189.746094 C 259.457031 191.335938 262.222656 192.589844 264.136719 193.371094 C 264.476562 193.507812 264.738281 193.78125 264.867188 194.121094 C 264.996094 194.464844 264.976562 194.84375 264.8125 195.167969 L 263.378906 198.039062 C 263.191406 198.410156 262.835938 198.675781 262.421875 198.742188 C 262.351562 198.753906 262.28125 198.761719 262.207031 198.761719 Z M 261.820312 195.234375 L 261.84375 195.257812 L 261.847656 195.25 C 261.839844 195.246094 261.828125 195.238281 261.820312 195.234375 Z M 261.820312 195.234375 " fill-opacity="1" fill-rule="nonzero"/><path fill="#19055b" d="M 235.210938 325.226562 C 235.105469 325.226562 235 325.210938 234.890625 325.183594 L 175.316406 310.210938 C 174.972656 310.121094 174.675781 309.898438 174.5 309.589844 C 174.324219 309.28125 174.28125 308.910156 174.382812 308.570312 C 180.261719 288.632812 184.011719 275.9375 186.289062 268.226562 C 187.6875 263.496094 188.496094 260.773438 189.015625 259.1875 C 189.019531 259.074219 189.035156 258.957031 189.070312 258.839844 L 189.378906 257.804688 L 189.5 257.839844 C 189.84375 257.011719 190.023438 256.96875 190.328125 256.894531 C 190.78125 256.785156 191.261719 256.925781 191.585938 257.265625 C 191.953125 257.652344 192.019531 257.902344 191.871094 258.542969 L 191.886719 258.546875 C 191.882812 258.554688 191.824219 258.757812 191.683594 259.226562 C 191.652344 259.339844 191.613281 259.457031 191.578125 259.585938 C 191.574219 259.59375 191.574219 259.597656 191.574219 259.601562 C 190.566406 262.992188 186.902344 275.359375 177.277344 308.003906 L 234.082031 322.285156 L 240.226562 269.355469 C 240.308594 268.640625 240.960938 268.125 241.675781 268.207031 C 242.394531 268.292969 242.90625 268.941406 242.824219 269.660156 L 236.511719 324.066406 C 236.46875 324.441406 236.265625 324.777344 235.953125 324.992188 C 235.734375 325.144531 235.472656 325.226562 235.210938 325.226562 Z M 235.210938 325.226562 " fill-opacity="1" fill-rule="nonzero"/><path fill="#19055b" d="M 330.589844 388.84375 C 329.972656 388.84375 329.359375 388.78125 328.757812 388.648438 C 325.546875 387.941406 323.113281 385.394531 321.503906 381.066406 C 318.742188 384.132812 312.289062 389.25 300.664062 387.800781 C 295.210938 387.121094 237.269531 375.550781 218.019531 369.707031 C 192.414062 361.933594 168.828125 352.125 169.613281 333.125 C 169.8125 328.375 171.605469 320.160156 174.949219 308.714844 C 175.144531 308.042969 175.839844 307.644531 176.523438 307.816406 L 210.9375 316.464844 C 211.28125 316.554688 211.578125 316.777344 211.753906 317.089844 C 211.929688 317.398438 211.972656 317.765625 211.871094 318.109375 C 210.652344 322.179688 209.703125 325.605469 209.046875 328.3125 C 216.203125 332.269531 269.121094 352.726562 292.089844 354.6875 C 296.546875 355.070312 304.167969 353.964844 311.542969 352.894531 C 324.65625 350.996094 332.835938 350.015625 335.878906 352.425781 L 336.265625 352.730469 C 340.714844 356.253906 349.976562 363.578125 350.71875 370.710938 C 350.960938 373.035156 350.308594 375.148438 348.773438 376.992188 C 347.699219 378.28125 338.664062 388.84375 330.589844 388.84375 Z M 321.992188 376.96875 C 322.050781 376.96875 322.109375 376.972656 322.171875 376.980469 C 322.691406 377.050781 323.121094 377.429688 323.257812 377.9375 C 324.535156 382.746094 326.574219 385.488281 329.320312 386.09375 C 334.96875 387.34375 343.207031 379.59375 346.761719 375.320312 C 347.84375 374.019531 348.289062 372.597656 348.121094 370.980469 C 347.488281 364.945312 338.8125 358.082031 334.644531 354.785156 L 334.253906 354.476562 C 331.875 352.589844 320.808594 354.195312 311.917969 355.484375 C 304.398438 356.574219 296.621094 357.695312 291.867188 357.296875 C 267.566406 355.21875 209.992188 332.558594 206.738281 329.929688 C 206.347656 329.617188 206.171875 329.105469 206.285156 328.617188 C 206.890625 326.011719 207.796875 322.671875 208.972656 318.671875 L 177.105469 310.660156 C 174.050781 321.265625 172.410156 328.859375 172.226562 333.234375 C 171.515625 350.453125 194.183594 359.738281 218.777344 367.203125 C 237.820312 372.984375 296.398438 384.632812 300.988281 385.203125 C 315.175781 386.976562 320.636719 377.996094 320.863281 377.613281 C 321.101562 377.210938 321.535156 376.96875 321.992188 376.96875 Z M 321.992188 376.96875 " fill-opacity="1" fill-rule="nonzero"/><path fill="#ec8f3c" d="M 445.199219 456.898438 L 628.445312 456.898438 L 628.445312 543.582031 L 445.199219 543.582031 Z M 445.199219 456.898438 " fill-opacity="1" fill-rule="nonzero"/><path fill="#19055b" d="M 628.449219 544.890625 L 445.199219 544.890625 C 444.476562 544.890625 443.890625 544.304688 443.890625 543.582031 L 443.890625 456.902344 C 443.890625 456.179688 444.476562 455.59375 445.199219 455.59375 L 628.449219 455.59375 C 629.171875 455.59375 629.757812 456.179688 629.757812 456.902344 L 629.757812 543.582031 C 629.757812 544.304688 629.171875 544.890625 628.449219 544.890625 Z M 446.507812 542.273438 L 627.140625 542.273438 L 627.140625 458.207031 L 446.507812 458.207031 Z M 446.507812 542.273438 " fill-opacity="1" fill-rule="nonzero"/><path fill="#f6bd3b" d="M 445.199219 456.898438 L 568.109375 456.898438 L 568.109375 543.582031 L 445.199219 543.582031 Z M 445.199219 456.898438 " fill-opacity="1" fill-rule="nonzero"/><path fill="#19055b" d="M 568.109375 544.890625 L 445.199219 544.890625 C 444.476562 544.890625 443.890625 544.304688 443.890625 543.582031 L 443.890625 456.902344 C 443.890625 456.179688 444.476562 455.59375 445.199219 455.59375 L 568.109375 455.59375 C 568.832031 455.59375 569.417969 456.179688 569.417969 456.902344 L 569.417969 543.582031 C 569.417969 544.304688 568.832031 544.890625 568.109375 544.890625 Z M 446.507812 542.273438 L 566.800781 542.273438 L 566.800781 458.207031 L 446.507812 458.207031 Z M 446.507812 542.273438 " fill-opacity="1" fill-rule="nonzero"/><path fill="#f6bd3b" d="M 453.207031 543.582031 L 641.296875 543.582031 L 641.296875 588.203125 L 453.207031 588.203125 Z M 453.207031 543.582031 " fill-opacity="1" fill-rule="nonzero"/><path fill="#19055b" d="M 641.296875 589.511719 L 453.207031 589.511719 C 452.484375 589.511719 451.898438 588.925781 451.898438 588.203125 L 451.898438 543.582031 C 451.898438 542.859375 452.484375 542.273438 453.207031 542.273438 L 641.296875 542.273438 C 642.019531 542.273438 642.605469 542.859375 642.605469 543.582031 L 642.605469 588.203125 C 642.605469 588.925781 642.019531 589.511719 641.296875 589.511719 Z M 454.515625 586.894531 L 639.988281 586.894531 L 639.988281 544.890625 L 454.515625 544.890625 Z M 454.515625 586.894531 " fill-opacity="1" fill-rule="nonzero"/><path fill="#ec8f3c" d="M 579.839844 543.582031 L 641.296875 543.582031 L 641.296875 588.203125 L 579.839844 588.203125 Z M 579.839844 543.582031 " fill-opacity="1" fill-rule="nonzero"/><path fill="#19055b" d="M 641.296875 589.511719 L 579.84375 589.511719 C 579.121094 589.511719 578.535156 588.925781 578.535156 588.203125 L 578.535156 543.582031 C 578.535156 542.859375 579.121094 542.273438 579.84375 542.273438 L 641.296875 542.273438 C 642.019531 542.273438 642.605469 542.859375 642.605469 543.582031 L 642.605469 588.203125 C 642.605469 588.925781 642.019531 589.511719 641.296875 589.511719 Z M 581.148438 586.894531 L 639.988281 586.894531 L 639.988281 544.890625 L 581.148438 544.890625 Z M 581.148438 586.894531 " fill-opacity="1" fill-rule="nonzero"/><path fill="#ec8f3c" d="M 460.074219 466.398438 L 500.398438 466.398438 L 500.398438 491.042969 L 460.074219 491.042969 Z M 460.074219 466.398438 " fill-opacity="1" fill-rule="nonzero"/><path fill="#19055b" d="M 453.207031 585.695312 L 641.296875 585.695312 L 641.296875 589.34375 L 453.207031 589.34375 Z M 453.207031 585.695312 " fill-opacity="1" fill-rule="nonzero"/><path fill="#19055b" d="M 641.296875 590.652344 L 453.207031 590.652344 C 452.484375 590.652344 451.898438 590.066406 451.898438 589.34375 L 451.898438 585.695312 C 451.898438 584.972656 452.484375 584.386719 453.207031 584.386719 L 641.296875 584.386719 C 642.019531 584.386719 642.605469 584.972656 642.605469 585.695312 L 642.605469 589.34375 C 642.605469 590.066406 642.019531 590.652344 641.296875 590.652344 Z M 454.515625 588.035156 L 639.988281 588.035156 L 639.988281 587.003906 L 454.515625 587.003906 Z M 454.515625 588.035156 " fill-opacity="1" fill-rule="nonzero"/><path fill="#19055b" d="M 621.199219 737.441406 C 607.9375 737.441406 597.148438 726.648438 597.148438 713.386719 C 597.148438 700.121094 607.9375 689.332031 621.199219 689.332031 C 634.457031 689.332031 645.246094 700.121094 645.246094 713.386719 C 645.246094 726.648438 634.457031 737.441406 621.199219 737.441406 Z M 621.199219 737.441406 " fill-opacity="1" fill-rule="nonzero"/><g clip-path="url(#5b641b5df0)"><path fill="#19055b" d="M 621.199219 738.75 C 607.214844 738.75 595.839844 727.371094 595.839844 713.386719 C 595.839844 699.402344 607.214844 688.023438 621.199219 688.023438 C 635.179688 688.023438 646.554688 699.402344 646.554688 713.386719 C 646.554688 727.371094 635.179688 738.75 621.199219 738.75 Z M 621.199219 690.640625 C 608.65625 690.640625 598.457031 700.84375 598.457031 713.386719 C 598.457031 725.929688 608.65625 736.132812 621.199219 736.132812 C 633.738281 736.132812 643.9375 725.929688 643.9375 713.386719 C 643.9375 700.84375 633.738281 690.640625 621.199219 690.640625 Z M 621.199219 690.640625 " fill-opacity="1" fill-rule="nonzero"/></g><path fill="#7bc9c0" d="M 632.195312 713.386719 C 632.195312 714.109375 632.125 714.824219 631.984375 715.53125 C 631.84375 716.242188 631.632812 716.929688 631.355469 717.597656 C 631.082031 718.261719 630.742188 718.898438 630.339844 719.496094 C 629.941406 720.097656 629.484375 720.652344 628.972656 721.164062 C 628.460938 721.675781 627.90625 722.128906 627.308594 722.53125 C 626.707031 722.933594 626.074219 723.273438 625.40625 723.546875 C 624.738281 723.824219 624.050781 724.03125 623.34375 724.175781 C 622.636719 724.316406 621.921875 724.386719 621.199219 724.386719 C 620.476562 724.386719 619.761719 724.316406 619.054688 724.175781 C 618.34375 724.03125 617.65625 723.824219 616.992188 723.546875 C 616.324219 723.273438 615.691406 722.933594 615.089844 722.53125 C 614.488281 722.128906 613.933594 721.675781 613.421875 721.164062 C 612.914062 720.652344 612.457031 720.097656 612.054688 719.496094 C 611.65625 718.898438 611.316406 718.261719 611.039062 717.597656 C 610.761719 716.929688 610.554688 716.242188 610.414062 715.53125 C 610.273438 714.824219 610.203125 714.109375 610.203125 713.386719 C 610.203125 712.664062 610.273438 711.949219 610.414062 711.242188 C 610.554688 710.53125 610.761719 709.84375 611.039062 709.179688 C 611.316406 708.511719 611.65625 707.875 612.054688 707.277344 C 612.457031 706.675781 612.914062 706.121094 613.421875 705.609375 C 613.933594 705.097656 614.488281 704.644531 615.089844 704.242188 C 615.691406 703.839844 616.324219 703.503906 616.992188 703.226562 C 617.65625 702.949219 618.34375 702.742188 619.054688 702.601562 C 619.761719 702.457031 620.476562 702.386719 621.199219 702.386719 C 621.921875 702.386719 622.636719 702.457031 623.34375 702.601562 C 624.050781 702.742188 624.738281 702.949219 625.40625 703.226562 C 626.074219 703.503906 626.707031 703.839844 627.308594 704.242188 C 627.90625 704.644531 628.464844 705.097656 628.972656 705.609375 C 629.484375 706.121094 629.941406 706.675781 630.339844 707.277344 C 630.742188 707.875 631.082031 708.511719 631.355469 709.179688 C 631.632812 709.84375 631.84375 710.53125 631.984375 711.242188 C 632.125 711.949219 632.195312 712.664062 632.195312 713.386719 Z M 632.195312 713.386719 " fill-opacity="1" fill-rule="nonzero"/><path fill="#19055b" d="M 621.199219 725.691406 C 614.414062 725.691406 608.894531 720.171875 608.894531 713.386719 C 608.894531 706.601562 614.414062 701.082031 621.199219 701.082031 C 627.984375 701.082031 633.5 706.601562 633.5 713.386719 C 633.5 720.171875 627.984375 725.691406 621.199219 725.691406 Z M 621.199219 703.695312 C 615.859375 703.695312 611.511719 708.042969 611.511719 713.386719 C 611.511719 718.730469 615.859375 723.078125 621.199219 723.078125 C 626.539062 723.078125 630.886719 718.730469 630.886719 713.386719 C 630.886719 708.042969 626.539062 703.695312 621.199219 703.695312 Z M 621.199219 703.695312 " fill-opacity="1" fill-rule="nonzero"/><path fill="#19055b" d="M 472.414062 737.441406 C 459.15625 737.441406 448.367188 726.648438 448.367188 713.386719 C 448.367188 700.121094 459.15625 689.332031 472.414062 689.332031 C 485.675781 689.332031 496.464844 700.121094 496.464844 713.386719 C 496.464844 726.648438 485.675781 737.441406 472.414062 737.441406 Z M 472.414062 737.441406 " fill-opacity="1" fill-rule="nonzero"/><g clip-path="url(#0ab93300f4)"><path fill="#19055b" d="M 472.414062 738.75 C 458.433594 738.75 447.058594 727.371094 447.058594 713.386719 C 447.058594 699.402344 458.433594 688.023438 472.414062 688.023438 C 486.398438 688.023438 497.773438 699.402344 497.773438 713.386719 C 497.773438 727.371094 486.398438 738.75 472.414062 738.75 Z M 472.414062 690.640625 C 459.875 690.640625 449.675781 700.84375 449.675781 713.386719 C 449.675781 725.929688 459.875 736.132812 472.414062 736.132812 C 484.953125 736.132812 495.15625 725.929688 495.15625 713.386719 C 495.15625 700.84375 484.953125 690.640625 472.414062 690.640625 Z M 472.414062 690.640625 " fill-opacity="1" fill-rule="nonzero"/></g><path fill="#7bc9c0" d="M 483.410156 713.386719 C 483.410156 714.109375 483.339844 714.824219 483.199219 715.53125 C 483.058594 716.242188 482.851562 716.929688 482.574219 717.597656 C 482.296875 718.261719 481.957031 718.898438 481.558594 719.496094 C 481.15625 720.097656 480.699219 720.652344 480.191406 721.164062 C 479.679688 721.675781 479.125 722.128906 478.523438 722.53125 C 477.925781 722.933594 477.289062 723.273438 476.625 723.546875 C 475.957031 723.824219 475.269531 724.03125 474.558594 724.175781 C 473.851562 724.316406 473.136719 724.386719 472.414062 724.386719 C 471.691406 724.386719 470.976562 724.316406 470.269531 724.175781 C 469.5625 724.03125 468.875 723.824219 468.207031 723.546875 C 467.539062 723.273438 466.90625 722.933594 466.304688 722.53125 C 465.707031 722.128906 465.152344 721.675781 464.640625 721.164062 C 464.128906 720.652344 463.675781 720.097656 463.273438 719.496094 C 462.871094 718.898438 462.53125 718.261719 462.257812 717.597656 C 461.980469 716.929688 461.773438 716.242188 461.632812 715.53125 C 461.488281 714.824219 461.417969 714.109375 461.417969 713.386719 C 461.417969 712.664062 461.488281 711.949219 461.632812 711.242188 C 461.773438 710.53125 461.980469 709.84375 462.257812 709.179688 C 462.53125 708.511719 462.871094 707.875 463.273438 707.277344 C 463.675781 706.675781 464.128906 706.121094 464.640625 705.609375 C 465.152344 705.097656 465.707031 704.644531 466.304688 704.242188 C 466.90625 703.839844 467.539062 703.503906 468.207031 703.226562 C 468.875 702.949219 469.5625 702.742188 470.269531 702.601562 C 470.976562 702.457031 471.691406 702.386719 472.414062 702.386719 C 473.136719 702.386719 473.851562 702.457031 474.558594 702.601562 C 475.269531 702.742188 475.957031 702.949219 476.625 703.226562 C 477.289062 703.503906 477.925781 703.839844 478.523438 704.242188 C 479.125 704.644531 479.679688 705.097656 480.191406 705.609375 C 480.699219 706.121094 481.15625 706.675781 481.558594 707.277344 C 481.957031 707.875 482.296875 708.511719 482.574219 709.179688 C 482.851562 709.84375 483.058594 710.53125 483.199219 711.242188 C 483.339844 711.949219 483.410156 712.664062 483.410156 713.386719 Z M 483.410156 713.386719 " fill-opacity="1" fill-rule="nonzero"/><path fill="#19055b" d="M 472.414062 725.691406 C 465.632812 725.691406 460.113281 720.171875 460.113281 713.386719 C 460.113281 706.601562 465.632812 701.082031 472.414062 701.082031 C 479.199219 701.082031 484.71875 706.601562 484.71875 713.386719 C 484.71875 720.171875 479.199219 725.691406 472.414062 725.691406 Z M 472.414062 703.695312 C 467.074219 703.695312 462.726562 708.042969 462.726562 713.386719 C 462.726562 718.730469 467.074219 723.078125 472.414062 723.078125 C 477.757812 723.078125 482.101562 718.730469 482.101562 713.386719 C 482.101562 708.042969 477.757812 703.695312 472.414062 703.695312 Z M 472.414062 703.695312 " fill-opacity="1" fill-rule="nonzero"/><path fill="#19055b" d="M 441.753906 589.78125 C 441.167969 589.78125 440.652344 589.390625 440.492188 588.828125 L 394.328125 424.722656 C 394.21875 424.328125 394.296875 423.90625 394.546875 423.578125 C 394.792969 423.25 395.175781 423.058594 395.585938 423.058594 L 690.90625 423.058594 C 691.304688 423.058594 691.679688 423.238281 691.929688 423.550781 C 692.175781 423.859375 692.269531 424.265625 692.183594 424.652344 L 655.726562 588.523438 C 655.589844 589.121094 655.0625 589.546875 654.449219 589.546875 Z M 397.3125 425.675781 L 442.742188 587.164062 L 653.398438 586.933594 L 689.277344 425.675781 Z M 397.3125 425.675781 " fill-opacity="1" fill-rule="nonzero"/><path fill="#19055b" d="M 481.980469 589.511719 C 481.382812 589.511719 480.84375 589.101562 480.707031 588.496094 L 443.140625 424.660156 C 442.976562 423.957031 443.417969 423.253906 444.121094 423.09375 C 444.820312 422.929688 445.527344 423.371094 445.6875 424.074219 L 483.253906 587.910156 C 483.417969 588.617188 482.976562 589.316406 482.273438 589.476562 C 482.175781 589.5 482.074219 589.511719 481.980469 589.511719 Z M 481.980469 589.511719 " fill-opacity="1" fill-rule="nonzero"/><path fill="#19055b" d="M 519.210938 589.699219 C 518.585938 589.699219 518.03125 589.246094 517.921875 588.605469 L 490.417969 424.585938 C 490.300781 423.871094 490.78125 423.195312 491.492188 423.078125 C 492.195312 422.957031 492.878906 423.4375 493 424.152344 L 520.503906 588.171875 C 520.621094 588.886719 520.140625 589.558594 519.429688 589.679688 C 519.355469 589.691406 519.28125 589.699219 519.210938 589.699219 Z M 519.210938 589.699219 " fill-opacity="1" fill-rule="nonzero"/><path fill="#19055b" d="M 621.816406 589.511719 C 621.746094 589.511719 621.675781 589.507812 621.605469 589.496094 C 620.890625 589.378906 620.40625 588.707031 620.523438 587.992188 L 647.179688 424.15625 C 647.292969 423.445312 647.964844 422.957031 648.679688 423.078125 C 649.390625 423.191406 649.875 423.863281 649.761719 424.578125 L 623.105469 588.414062 C 623 589.054688 622.445312 589.511719 621.816406 589.511719 Z M 621.816406 589.511719 " fill-opacity="1" fill-rule="nonzero"/><path fill="#19055b" d="M 587.578125 589.511719 C 587.542969 589.511719 587.507812 589.511719 587.472656 589.507812 C 586.753906 589.449219 586.214844 588.820312 586.273438 588.097656 L 599.386719 424.261719 C 599.445312 423.542969 600.066406 423 600.796875 423.0625 C 601.515625 423.121094 602.054688 423.75 601.996094 424.472656 L 588.878906 588.308594 C 588.824219 588.992188 588.253906 589.511719 587.578125 589.511719 Z M 587.578125 589.511719 " fill-opacity="1" fill-rule="nonzero"/><path fill="#19055b" d="M 550.640625 589.511719 C 549.925781 589.511719 549.339844 588.9375 549.332031 588.21875 L 547.246094 424.382812 C 547.238281 423.660156 547.816406 423.070312 548.539062 423.058594 C 548.542969 423.058594 548.550781 423.058594 548.554688 423.058594 C 549.269531 423.058594 549.855469 423.632812 549.863281 424.351562 L 551.945312 588.1875 C 551.957031 588.910156 551.378906 589.503906 550.65625 589.511719 C 550.652344 589.511719 550.644531 589.511719 550.640625 589.511719 Z M 550.640625 589.511719 " fill-opacity="1" fill-rule="nonzero"/><path fill="#7bc9c0" d="M 471.476562 686.234375 L 467.476562 713.703125 C 466.789062 718.429688 472.910156 720.894531 475.6875 717.011719 L 496.949219 687.308594 C 497.964844 685.890625 496.953125 683.917969 495.207031 683.917969 L 474.15625 683.917969 C 472.8125 683.917969 471.671875 684.902344 471.476562 686.234375 Z M 471.476562 686.234375 " fill-opacity="1" fill-rule="nonzero"/><path fill="#19055b" d="M 472.035156 720.238281 C 471.289062 720.238281 470.53125 720.097656 469.792969 719.800781 C 467.238281 718.769531 465.785156 716.242188 466.183594 713.515625 L 470.183594 686.046875 C 470.46875 684.085938 472.175781 682.609375 474.15625 682.609375 L 495.207031 682.609375 C 496.507812 682.609375 497.683594 683.328125 498.277344 684.484375 C 498.871094 685.640625 498.769531 687.015625 498.011719 688.074219 L 476.75 717.773438 C 475.609375 719.367188 473.867188 720.238281 472.035156 720.238281 Z M 474.15625 685.226562 C 473.464844 685.226562 472.871094 685.738281 472.773438 686.421875 L 468.773438 713.890625 C 468.5 715.757812 469.679688 716.929688 470.773438 717.371094 C 471.859375 717.8125 473.527344 717.78125 474.625 716.25 L 495.886719 686.550781 C 496.15625 686.175781 496.019531 685.816406 495.949219 685.679688 C 495.878906 685.542969 495.667969 685.226562 495.207031 685.226562 Z M 471.476562 686.234375 L 471.492188 686.234375 Z M 471.476562 686.234375 " fill-opacity="1" fill-rule="nonzero"/><path fill="#19055b" d="M 476.707031 675.75 L 492.371094 675.75 L 492.371094 683.917969 L 476.707031 683.917969 Z M 476.707031 675.75 " fill-opacity="1" fill-rule="nonzero"/><path fill="#19055b" d="M 492.371094 685.226562 L 476.707031 685.226562 C 475.984375 685.226562 475.398438 684.640625 475.398438 683.917969 L 475.398438 675.75 C 475.398438 675.027344 475.984375 674.441406 476.707031 674.441406 L 492.371094 674.441406 C 493.09375 674.441406 493.679688 675.027344 493.679688 675.75 L 493.679688 683.917969 C 493.679688 684.640625 493.09375 685.226562 492.371094 685.226562 Z M 478.011719 682.609375 L 491.0625 682.609375 L 491.0625 677.058594 L 478.011719 677.058594 Z M 478.011719 682.609375 " fill-opacity="1" fill-rule="nonzero"/><path fill="#7bc9c0" d="M 620.859375 686.234375 L 616.863281 713.703125 C 616.171875 718.429688 622.292969 720.894531 625.070312 717.011719 L 646.332031 687.308594 C 647.347656 685.890625 646.335938 683.917969 644.589844 683.917969 L 623.539062 683.917969 C 622.195312 683.917969 621.054688 684.902344 620.859375 686.234375 Z M 620.859375 686.234375 " fill-opacity="1" fill-rule="nonzero"/><path fill="#19055b" d="M 621.417969 720.238281 C 620.671875 720.238281 619.917969 720.097656 619.179688 719.800781 C 616.621094 718.769531 615.171875 716.242188 615.566406 713.515625 L 619.566406 686.046875 C 619.851562 684.085938 621.558594 682.609375 623.539062 682.609375 L 644.589844 682.609375 C 645.890625 682.609375 647.066406 683.328125 647.660156 684.484375 C 648.253906 685.640625 648.152344 687.015625 647.394531 688.074219 L 626.136719 717.773438 C 624.992188 719.367188 623.25 720.238281 621.417969 720.238281 Z M 623.539062 685.226562 C 622.847656 685.226562 622.253906 685.738281 622.15625 686.421875 L 618.15625 713.890625 C 617.882812 715.757812 619.0625 716.929688 620.15625 717.371094 C 621.242188 717.8125 622.910156 717.78125 624.007812 716.25 L 645.269531 686.550781 C 645.539062 686.175781 645.402344 685.816406 645.332031 685.679688 C 645.261719 685.542969 645.050781 685.226562 644.589844 685.226562 Z M 620.863281 686.234375 L 620.875 686.234375 Z M 620.863281 686.234375 " fill-opacity="1" fill-rule="nonzero"/><path fill="#19055b" d="M 626.34375 675.75 L 642.007812 675.75 L 642.007812 683.917969 L 626.34375 683.917969 Z M 626.34375 675.75 " fill-opacity="1" fill-rule="nonzero"/><path fill="#19055b" d="M 642.007812 685.226562 L 626.34375 685.226562 C 625.617188 685.226562 625.035156 684.640625 625.035156 683.917969 L 625.035156 675.75 C 625.035156 675.027344 625.617188 674.441406 626.34375 674.441406 L 642.007812 674.441406 C 642.730469 674.441406 643.3125 675.027344 643.3125 675.75 L 643.3125 683.917969 C 643.3125 684.640625 642.730469 685.226562 642.007812 685.226562 Z M 627.648438 682.609375 L 640.699219 682.609375 L 640.699219 677.058594 L 627.648438 677.058594 Z M 627.648438 682.609375 " fill-opacity="1" fill-rule="nonzero"/><path fill="#7bc9c0" d="M 441.753906 674.035156 C 439.570312 674.035156 437.792969 672.257812 437.792969 670.074219 C 437.792969 667.886719 439.570312 666.109375 441.753906 666.109375 L 652.492188 666.109375 C 671.777344 666.109375 687.472656 650.414062 687.472656 631.121094 C 687.472656 611.824219 671.777344 596.128906 652.492188 596.128906 L 443.464844 596.128906 C 441.722656 596.128906 440.160156 594.960938 439.664062 593.289062 C 436.046875 581.035156 404.058594 472.472656 391.753906 425.367188 C 385.640625 401.957031 377.101562 379.101562 346.449219 379.101562 L 342.894531 379.113281 C 333.171875 379.113281 322.710938 378.945312 322.621094 378.941406 C 321.558594 378.925781 320.570312 378.496094 319.832031 377.734375 C 319.09375 376.972656 318.695312 375.972656 318.714844 374.917969 C 318.75 372.769531 320.535156 371.019531 322.695312 371.019531 C 323.78125 371.035156 333.734375 371.183594 342.992188 371.183594 L 346.453125 371.175781 C 385.785156 371.175781 394.996094 406.425781 399.421875 423.363281 C 410.863281 467.164062 440.125 566.804688 445.875 586.332031 L 446.425781 588.203125 L 652.492188 588.203125 C 676.148438 588.203125 695.394531 607.457031 695.394531 631.121094 C 695.394531 654.785156 676.148438 674.035156 652.492188 674.035156 Z M 441.753906 674.035156 " fill-opacity="1" fill-rule="nonzero"/><g clip-path="url(#b88f4b0d1a)"><path fill="#19055b" d="M 652.492188 675.34375 L 441.753906 675.34375 C 438.847656 675.34375 436.484375 672.980469 436.484375 670.074219 C 436.484375 667.167969 438.847656 664.800781 441.753906 664.800781 L 652.492188 664.800781 C 671.058594 664.800781 686.164062 649.691406 686.164062 631.121094 C 686.164062 612.546875 671.058594 597.4375 652.492188 597.4375 L 443.464844 597.4375 C 441.144531 597.4375 439.066406 595.882812 438.410156 593.660156 C 434.800781 581.425781 402.78125 472.765625 390.488281 425.699219 C 384.5 402.785156 376.167969 380.410156 346.449219 380.410156 L 342.898438 380.417969 C 333.164062 380.417969 322.671875 380.253906 322.59375 380.25 C 321.191406 380.230469 319.875 379.660156 318.894531 378.644531 C 317.910156 377.632812 317.382812 376.304688 317.40625 374.898438 C 317.453125 372.039062 319.824219 369.710938 322.695312 369.710938 C 322.820312 369.710938 333.300781 369.875 342.996094 369.875 L 346.449219 369.871094 C 386.796875 369.871094 396.179688 405.777344 400.6875 423.03125 C 412.105469 466.753906 441.378906 566.425781 447.128906 585.964844 L 447.402344 586.894531 L 652.492188 586.894531 C 676.871094 586.894531 696.703125 606.734375 696.703125 631.121094 C 696.703125 655.503906 676.871094 675.34375 652.492188 675.34375 Z M 441.753906 667.417969 C 440.289062 667.417969 439.097656 668.609375 439.097656 670.074219 C 439.097656 671.535156 440.289062 672.726562 441.753906 672.726562 L 652.492188 672.726562 C 675.429688 672.726562 694.085938 654.0625 694.085938 631.121094 C 694.085938 608.175781 675.429688 589.511719 652.492188 589.511719 L 446.421875 589.511719 C 445.84375 589.511719 445.332031 589.128906 445.167969 588.570312 L 444.621094 586.703125 C 438.867188 567.160156 409.585938 467.453125 398.15625 423.691406 C 393.8125 407.070312 384.777344 372.484375 346.453125 372.484375 L 342.996094 372.492188 C 333.28125 372.492188 322.78125 372.328125 322.675781 372.324219 C 321.242188 372.324219 320.042969 373.5 320.023438 374.941406 C 320.011719 375.644531 320.277344 376.316406 320.769531 376.824219 C 321.265625 377.335938 321.929688 377.625 322.640625 377.632812 C 322.734375 377.636719 333.125 377.804688 342.894531 377.804688 L 346.445312 377.796875 C 378.035156 377.796875 386.773438 401.132812 393.019531 425.039062 C 405.300781 472.0625 437.308594 580.6875 440.917969 592.917969 C 441.25 594.039062 442.296875 594.820312 443.464844 594.820312 L 652.492188 594.820312 C 672.5 594.820312 688.78125 611.105469 688.78125 631.121094 C 688.78125 651.136719 672.5 667.417969 652.492188 667.417969 Z M 441.753906 667.417969 " fill-opacity="1" fill-rule="nonzero"/></g><path fill="#19055b" d="M 680.746094 471.132812 L 414.882812 471.132812 C 414.160156 471.132812 413.578125 470.546875 413.578125 469.824219 C 413.578125 469.101562 414.160156 468.515625 414.882812 468.515625 L 680.746094 468.515625 C 681.46875 468.515625 682.054688 469.101562 682.054688 469.824219 C 682.054688 470.546875 681.46875 471.132812 680.746094 471.132812 Z M 680.746094 471.132812 " fill-opacity="1" fill-rule="nonzero"/><path fill="#19055b" d="M 671.167969 513.976562 L 427.121094 513.976562 C 426.398438 513.976562 425.8125 513.390625 425.8125 512.667969 C 425.8125 511.945312 426.398438 511.359375 427.121094 511.359375 L 671.167969 511.359375 C 671.890625 511.359375 672.476562 511.945312 672.476562 512.667969 C 672.476562 513.390625 671.890625 513.976562 671.167969 513.976562 Z M 671.167969 513.976562 " fill-opacity="1" fill-rule="nonzero"/><path fill="#19055b" d="M 661.589844 556.816406 L 439.554688 556.816406 C 438.832031 556.816406 438.246094 556.230469 438.246094 555.507812 C 438.246094 554.785156 438.832031 554.199219 439.554688 554.199219 L 661.589844 554.199219 C 662.3125 554.199219 662.898438 554.785156 662.898438 555.507812 C 662.898438 556.230469 662.3125 556.816406 661.589844 556.816406 Z M 661.589844 556.816406 " fill-opacity="1" fill-rule="nonzero"/><path fill="#19055b" d="M 289.640625 602.984375 C 289.507812 602.984375 289.375 602.964844 289.242188 602.921875 C 288.554688 602.703125 288.171875 601.96875 288.390625 601.277344 C 289.867188 596.65625 290.996094 594.546875 292.304688 592.109375 C 293.519531 589.832031 294.902344 587.253906 296.949219 581.894531 C 297.207031 581.21875 297.964844 580.882812 298.640625 581.140625 C 299.316406 581.398438 299.652344 582.15625 299.394531 582.828125 C 297.289062 588.34375 295.863281 591 294.609375 593.34375 C 293.3125 595.765625 292.285156 597.679688 290.886719 602.074219 C 290.707031 602.628906 290.191406 602.984375 289.640625 602.984375 Z M 289.640625 602.984375 " fill-opacity="1" fill-rule="nonzero"/><path fill="#19055b" d="M 275.34375 468.132812 L 259.054688 416.605469 L 274.824219 455.554688 Z M 275.34375 468.132812 " fill-opacity="1" fill-rule="nonzero"/><path fill="#19055b" d="M 275.34375 469.441406 C 274.78125 469.441406 274.269531 469.082031 274.097656 468.527344 L 257.808594 417 C 257.597656 416.328125 257.953125 415.609375 258.613281 415.375 C 259.277344 415.136719 260.003906 415.460938 260.265625 416.113281 L 276.035156 455.0625 C 276.089844 455.203125 276.125 455.351562 276.128906 455.5 L 276.648438 468.082031 C 276.675781 468.734375 276.214844 469.308594 275.570312 469.421875 C 275.492188 469.4375 275.417969 469.441406 275.34375 469.441406 Z M 270.339844 447.957031 L 273.632812 458.378906 L 273.527344 455.835938 Z M 270.339844 447.957031 " fill-opacity="1" fill-rule="nonzero"/><path fill="#19055b" d="M 151.5 708.058594 C 145.742188 708.058594 138.875 704.753906 130.070312 692.566406 C 122.933594 682.6875 111.496094 664.707031 102.300781 650.257812 C 99.257812 645.472656 96.507812 641.152344 94.335938 637.785156 C 92.738281 635.316406 84.980469 622.648438 88.992188 615.902344 C 90.691406 613.039062 94.152344 611.738281 99.265625 612.023438 C 101.230469 610.445312 109.691406 604.003906 118.414062 602.65625 C 118.949219 602.570312 119.496094 602.839844 119.761719 603.324219 C 119.898438 603.574219 133.578125 628.429688 153.882812 642.75 C 154.292969 643.039062 154.5 643.539062 154.417969 644.035156 C 153.640625 648.730469 150.207031 672.816406 158.941406 685.992188 L 159.457031 686.761719 C 161.722656 690.105469 165.941406 696.332031 164.375 701.359375 C 163.671875 703.609375 161.925781 705.292969 159.183594 706.359375 C 156.820312 707.28125 154.289062 708.058594 151.5 708.058594 Z M 97.882812 614.597656 C 94.515625 614.597656 92.28125 615.484375 91.238281 617.238281 C 88.566406 621.734375 93.308594 631.375 96.53125 636.363281 C 98.710938 639.738281 101.460938 644.0625 104.507812 648.851562 C 113.683594 663.273438 125.101562 681.21875 132.191406 691.035156 C 144.171875 707.617188 151.625 706.496094 158.234375 703.921875 C 160.226562 703.144531 161.417969 702.054688 161.875 700.582031 C 163.066406 696.757812 159.164062 690.996094 157.289062 688.226562 L 156.757812 687.4375 C 147.917969 674.097656 150.730469 650.777344 151.710938 644.414062 C 133.371094 631.191406 120.488281 609.839844 117.929688 605.398438 C 109.207031 607.125 100.625 614.289062 100.535156 614.363281 C 100.273438 614.582031 99.929688 614.691406 99.59375 614.667969 C 98.996094 614.621094 98.425781 614.597656 97.882812 614.597656 Z M 97.882812 614.597656 " fill-opacity="1" fill-rule="nonzero"/><path fill="#19055b" d="M 247.03125 164.058594 C 246.183594 164.058594 245.332031 163.988281 244.476562 163.84375 C 240.730469 163.214844 237.429688 161.265625 235.1875 158.359375 C 232.917969 155.417969 231.996094 151.855469 232.589844 148.320312 C 233.808594 141.070312 241.121094 136.230469 248.890625 137.53125 C 256.664062 138.835938 261.996094 145.796875 260.78125 153.054688 C 260.660156 153.765625 259.980469 154.242188 259.273438 154.125 C 258.5625 154.007812 258.082031 153.332031 258.199219 152.621094 C 259.179688 146.789062 254.808594 141.175781 248.457031 140.109375 C 242.089844 139.042969 236.148438 142.921875 235.167969 148.753906 C 234.699219 151.5625 235.441406 154.402344 237.257812 156.757812 C 239.097656 159.144531 241.816406 160.746094 244.910156 161.265625 C 246.695312 161.5625 248.46875 161.484375 250.179688 161.03125 C 250.875 160.84375 251.59375 161.261719 251.78125 161.960938 C 251.964844 162.660156 251.550781 163.375 250.851562 163.558594 C 249.601562 163.894531 248.320312 164.058594 247.03125 164.058594 Z M 247.03125 164.058594 " fill-opacity="1" fill-rule="nonzero"/><path fill="#19055b" d="M 230.871094 182.949219 C 227.652344 182.949219 224.535156 181.90625 221.925781 179.925781 C 218.769531 177.527344 216.730469 174.042969 216.191406 170.113281 C 215.933594 168.21875 216.039062 166.332031 216.503906 164.488281 C 209.429688 161.976562 204.289062 155.726562 203.261719 148.222656 C 202.585938 143.300781 203.730469 138.386719 206.484375 134.273438 C 204.5625 131.414062 203.308594 128.117188 202.835938 124.679688 C 201.132812 112.234375 209.863281 100.722656 222.304688 99.015625 C 222.824219 98.941406 223.347656 98.890625 223.890625 98.855469 C 227.492188 90.550781 235.1875 84.679688 244.167969 83.445312 C 249.808594 82.671875 255.578125 83.789062 260.511719 86.589844 C 263.308594 84.234375 266.679688 82.734375 270.316406 82.234375 C 279.78125 80.933594 288.679688 86.679688 291.4375 95.714844 C 301.523438 95.351562 310.289062 102.671875 311.675781 112.773438 C 313.15625 123.582031 305.570312 133.578125 294.769531 135.0625 C 291.835938 135.464844 288.835938 135.199219 286.027344 134.292969 C 283.496094 138.261719 279.4375 140.875 274.746094 141.519531 C 273.378906 141.707031 271.988281 141.710938 270.601562 141.535156 C 269.738281 147.445312 265.550781 152.515625 259.824219 154.417969 C 259.382812 154.566406 258.894531 154.464844 258.546875 154.15625 C 258.195312 153.847656 258.039062 153.375 258.128906 152.917969 L 258.179688 152.71875 C 259.179688 146.789062 254.808594 141.175781 248.457031 140.109375 C 242.105469 139.046875 236.148438 142.925781 235.167969 148.753906 C 234.28125 154.046875 237.835938 159.273438 243.433594 160.914062 C 243.785156 161.015625 244.082031 161.265625 244.242188 161.59375 C 244.9375 163.019531 245.398438 164.527344 245.609375 166.078125 C 246.722656 174.1875 241.027344 181.695312 232.917969 182.808594 C 232.234375 182.902344 231.550781 182.949219 230.871094 182.949219 Z M 247.683594 85.824219 C 246.632812 85.824219 245.574219 85.894531 244.523438 86.039062 C 236.199219 87.179688 229.097656 92.761719 225.996094 100.605469 C 225.804688 101.089844 225.339844 101.414062 224.820312 101.429688 C 224.058594 101.453125 223.351562 101.511719 222.660156 101.605469 C 211.648438 103.117188 203.917969 113.308594 205.429688 124.324219 C 205.882812 127.644531 207.164062 130.820312 209.136719 133.503906 C 209.476562 133.964844 209.472656 134.59375 209.132812 135.054688 C 206.394531 138.761719 205.226562 143.3125 205.851562 147.867188 C 206.800781 154.78125 211.757812 160.472656 218.484375 162.371094 C 218.832031 162.472656 219.121094 162.707031 219.289062 163.027344 C 219.457031 163.347656 219.484375 163.722656 219.363281 164.066406 C 218.714844 165.917969 218.519531 167.832031 218.785156 169.757812 C 219.230469 172.996094 220.90625 175.867188 223.507812 177.839844 C 226.113281 179.816406 229.324219 180.65625 232.5625 180.214844 C 239.242188 179.296875 243.933594 173.117188 243.019531 166.433594 C 242.867188 165.339844 242.566406 164.265625 242.121094 163.242188 C 235.585938 161.042969 231.515625 154.730469 232.589844 148.320312 C 233.808594 141.066406 241.132812 136.230469 248.890625 137.53125 C 255.964844 138.71875 261.019531 144.589844 260.953125 151.105469 C 265.082031 148.941406 267.886719 144.679688 268.132812 139.941406 C 268.152344 139.558594 268.339844 139.203125 268.648438 138.96875 C 268.949219 138.734375 269.34375 138.648438 269.71875 138.730469 C 271.28125 139.070312 272.851562 139.136719 274.390625 138.925781 C 278.621094 138.347656 282.238281 135.847656 284.304688 132.074219 C 284.617188 131.5 285.3125 131.246094 285.921875 131.484375 C 288.613281 132.523438 291.550781 132.859375 294.414062 132.46875 C 303.789062 131.183594 310.367188 122.507812 309.082031 113.128906 C 307.835938 104.050781 299.710938 97.570312 290.574219 98.386719 C 289.921875 98.433594 289.339844 98.023438 289.1875 97.394531 C 287.140625 89.0625 279.183594 83.652344 270.671875 84.824219 C 267.246094 85.296875 264.09375 86.792969 261.558594 89.160156 C 261.125 89.5625 260.476562 89.625 259.976562 89.316406 C 256.28125 87.023438 252.007812 85.824219 247.683594 85.824219 Z M 247.683594 85.824219 " fill-opacity="1" fill-rule="nonzero"/><path fill="#f6bd3b" d="M 332.371094 374.910156 C 332.371094 375.5 332.3125 376.085938 332.199219 376.664062 C 332.082031 377.242188 331.914062 377.804688 331.6875 378.351562 C 331.460938 378.894531 331.183594 379.414062 330.855469 379.90625 C 330.527344 380.394531 330.15625 380.851562 329.738281 381.265625 C 329.320312 381.683594 328.867188 382.058594 328.375 382.386719 C 327.886719 382.710938 327.367188 382.988281 326.824219 383.214844 C 326.277344 383.441406 325.714844 383.613281 325.136719 383.726562 C 324.558594 383.84375 323.972656 383.898438 323.382812 383.898438 C 322.792969 383.898438 322.210938 383.84375 321.632812 383.726562 C 321.050781 383.613281 320.488281 383.441406 319.945312 383.214844 C 319.398438 382.988281 318.882812 382.714844 318.390625 382.386719 C 317.902344 382.058594 317.445312 381.683594 317.03125 381.265625 C 316.613281 380.851562 316.238281 380.394531 315.910156 379.90625 C 315.585938 379.414062 315.308594 378.894531 315.082031 378.351562 C 314.855469 377.804688 314.683594 377.242188 314.570312 376.664062 C 314.453125 376.085938 314.398438 375.5 314.398438 374.910156 C 314.398438 374.320312 314.453125 373.734375 314.570312 373.15625 C 314.683594 372.578125 314.855469 372.015625 315.082031 371.472656 C 315.308594 370.925781 315.585938 370.40625 315.910156 369.917969 C 316.238281 369.425781 316.613281 368.972656 317.03125 368.554688 C 317.445312 368.136719 317.902344 367.765625 318.390625 367.4375 C 318.882812 367.109375 319.398438 366.832031 319.945312 366.605469 C 320.488281 366.378906 321.050781 366.210938 321.632812 366.09375 C 322.210938 365.980469 322.792969 365.921875 323.382812 365.921875 C 323.972656 365.921875 324.558594 365.980469 325.136719 366.09375 C 325.714844 366.210938 326.277344 366.378906 326.824219 366.605469 C 327.367188 366.832031 327.886719 367.109375 328.375 367.4375 C 328.867188 367.765625 329.320312 368.136719 329.738281 368.554688 C 330.15625 368.972656 330.527344 369.425781 330.855469 369.917969 C 331.183594 370.40625 331.460938 370.925781 331.6875 371.472656 C 331.914062 372.015625 332.082031 372.578125 332.199219 373.15625 C 332.3125 373.734375 332.371094 374.320312 332.371094 374.910156 Z M 332.371094 374.910156 " fill-opacity="1" fill-rule="nonzero"/><path fill="#19055b" d="M 323.382812 385.207031 C 317.707031 385.207031 313.089844 380.589844 313.089844 374.910156 C 313.089844 369.234375 317.707031 364.613281 323.382812 364.613281 C 329.058594 364.613281 333.675781 369.234375 333.675781 374.910156 C 333.675781 380.589844 329.058594 385.207031 323.382812 385.207031 Z M 323.382812 367.230469 C 319.148438 367.230469 315.703125 370.675781 315.703125 374.910156 C 315.703125 379.144531 319.148438 382.589844 323.382812 382.589844 C 327.617188 382.589844 331.0625 379.144531 331.0625 374.910156 C 331.0625 370.675781 327.617188 367.230469 323.382812 367.230469 Z M 323.382812 367.230469 " fill-opacity="1" fill-rule="nonzero"/><g clip-path="url(#c2edccda21)"><path fill="#19055b" d="M 292.929688 738.75 C 280.410156 738.75 262.640625 738.0625 247.949219 737.496094 C 242.269531 737.277344 237.144531 737.078125 233.121094 736.953125 C 230.292969 736.863281 216.011719 736.0625 212.839844 728.90625 C 211.375 725.589844 212.542969 721.601562 216.3125 717.039062 C 216.363281 714.695312 216.800781 704.554688 220.652344 696.265625 C 220.878906 695.785156 221.375 695.5 221.902344 695.507812 C 234.277344 696.101562 264.949219 697.257812 282.351562 695.164062 C 282.753906 695.117188 283.160156 695.257812 283.445312 695.550781 C 286.539062 698.746094 297.753906 709.191406 312.234375 709.464844 L 313.164062 709.476562 C 317.128906 709.507812 324.507812 709.566406 327.558594 713.757812 C 329.019531 715.769531 329.253906 718.398438 328.257812 721.578125 C 325.742188 729.574219 321.183594 738.148438 298.757812 738.6875 C 296.988281 738.730469 295.035156 738.75 292.929688 738.75 Z M 222.667969 698.164062 C 218.96875 706.761719 218.921875 717.414062 218.921875 717.523438 C 218.921875 717.832031 218.8125 718.132812 218.613281 718.371094 C 215.304688 722.253906 214.167969 725.441406 215.234375 727.847656 C 217.335938 732.59375 227.519531 734.160156 233.203125 734.335938 C 237.230469 734.464844 242.363281 734.660156 248.050781 734.882812 C 265.171875 735.542969 286.484375 736.367188 298.691406 736.074219 C 319.394531 735.574219 323.417969 728.25 325.761719 720.792969 C 326.507812 718.417969 326.402344 716.617188 325.441406 715.296875 C 323.171875 712.171875 316.398438 712.121094 313.144531 712.09375 L 312.1875 712.082031 C 297.640625 711.808594 286.539062 702.378906 282.023438 697.835938 C 264.738281 699.804688 235.480469 698.761719 222.667969 698.164062 Z M 222.667969 698.164062 " fill-opacity="1" fill-rule="nonzero"/></g><path fill="#19055b" d="M 213.300781 523.03125 L 233.269531 570.503906 L 230.167969 586.355469 L 233.835938 584.074219 L 236.976562 571.054688 Z M 213.300781 523.03125 " fill-opacity="1" fill-rule="nonzero"/><path fill="#19055b" d="M 230.167969 587.664062 C 229.90625 587.664062 229.648438 587.585938 229.425781 587.433594 C 228.996094 587.136719 228.785156 586.613281 228.882812 586.105469 L 231.910156 570.644531 L 212.097656 523.539062 C 211.820312 522.886719 212.113281 522.136719 212.757812 521.839844 C 213.402344 521.546875 214.160156 521.820312 214.472656 522.453125 L 238.148438 570.476562 C 238.285156 570.75 238.320312 571.066406 238.25 571.363281 L 235.109375 584.382812 C 235.027344 584.714844 234.820312 585.003906 234.527344 585.1875 L 230.859375 587.464844 C 230.648438 587.597656 230.40625 587.664062 230.167969 587.664062 Z M 231.4375 562.773438 L 234.472656 569.996094 C 234.574219 570.234375 234.601562 570.5 234.550781 570.753906 L 232.027344 583.660156 L 232.691406 583.246094 L 235.597656 571.210938 Z M 231.4375 562.773438 " fill-opacity="1" fill-rule="nonzero"/></svg>